<mxfile host="app.diagrams.net" agent="Mozilla/5.0 (Windows NT 10.0; Win64; x64) AppleWebKit/537.36 (KHTML, like Gecko) Chrome/130.0.0.0 Safari/537.36 Edg/130.0.0.0" version="24.8.3">
  <diagram name="Page-1" id="BZrJB5bXuwW4Xde09QmM">
    <mxGraphModel grid="1" page="1" gridSize="10" guides="1" tooltips="1" connect="1" arrows="1" fold="1" pageScale="1" pageWidth="1169" pageHeight="1654" math="0" shadow="0">
      <root>
        <mxCell id="0" />
        <mxCell id="1" parent="0" />
        <mxCell id="UwokpcZbceQ7SHiW36po-2" style="edgeStyle=orthogonalEdgeStyle;rounded=0;orthogonalLoop=1;jettySize=auto;html=1;" edge="1" parent="1" source="UwokpcZbceQ7SHiW36po-1">
          <mxGeometry relative="1" as="geometry">
            <mxPoint x="445" y="150" as="targetPoint" />
          </mxGeometry>
        </mxCell>
        <mxCell id="UwokpcZbceQ7SHiW36po-1" value="&lt;font size=&quot;3&quot;&gt;START&lt;/font&gt;" style="ellipse;whiteSpace=wrap;html=1;" vertex="1" parent="1">
          <mxGeometry x="390" y="10" width="110" height="60" as="geometry" />
        </mxCell>
        <mxCell id="UwokpcZbceQ7SHiW36po-4" style="edgeStyle=orthogonalEdgeStyle;rounded=0;orthogonalLoop=1;jettySize=auto;html=1;" edge="1" parent="1" source="UwokpcZbceQ7SHiW36po-3">
          <mxGeometry relative="1" as="geometry">
            <mxPoint x="430" y="350" as="targetPoint" />
          </mxGeometry>
        </mxCell>
        <mxCell id="UwokpcZbceQ7SHiW36po-3" value="Week days= 1: monday&lt;div&gt;2: tuesday&lt;/div&gt;&lt;div&gt;3:wednesday&lt;/div&gt;&lt;div&gt;4:thursday&lt;/div&gt;&lt;div&gt;5:friday&lt;/div&gt;&lt;div&gt;6:saterday&lt;/div&gt;&lt;div&gt;7:sunday&lt;br&gt;&lt;div&gt;&lt;br&gt;&lt;/div&gt;&lt;/div&gt;" style="shape=parallelogram;perimeter=parallelogramPerimeter;whiteSpace=wrap;html=1;fixedSize=1;" vertex="1" parent="1">
          <mxGeometry x="310" y="150" width="240" height="120" as="geometry" />
        </mxCell>
        <mxCell id="UwokpcZbceQ7SHiW36po-6" style="edgeStyle=orthogonalEdgeStyle;rounded=0;orthogonalLoop=1;jettySize=auto;html=1;" edge="1" parent="1" source="UwokpcZbceQ7SHiW36po-5">
          <mxGeometry relative="1" as="geometry">
            <mxPoint x="435" y="480" as="targetPoint" />
          </mxGeometry>
        </mxCell>
        <mxCell id="UwokpcZbceQ7SHiW36po-5" value="week number=enter week number" style="shape=parallelogram;perimeter=parallelogramPerimeter;whiteSpace=wrap;html=1;fixedSize=1;" vertex="1" parent="1">
          <mxGeometry x="320" y="350" width="230" height="60" as="geometry" />
        </mxCell>
        <mxCell id="UwokpcZbceQ7SHiW36po-8" style="edgeStyle=orthogonalEdgeStyle;rounded=0;orthogonalLoop=1;jettySize=auto;html=1;" edge="1" parent="1" source="UwokpcZbceQ7SHiW36po-7">
          <mxGeometry relative="1" as="geometry">
            <mxPoint x="140" y="660" as="targetPoint" />
          </mxGeometry>
        </mxCell>
        <mxCell id="UwokpcZbceQ7SHiW36po-11" value="Y" style="edgeLabel;html=1;align=center;verticalAlign=middle;resizable=0;points=[];" connectable="0" vertex="1" parent="UwokpcZbceQ7SHiW36po-8">
          <mxGeometry x="-0.5058" y="1" relative="1" as="geometry">
            <mxPoint as="offset" />
          </mxGeometry>
        </mxCell>
        <mxCell id="UwokpcZbceQ7SHiW36po-12" style="edgeStyle=orthogonalEdgeStyle;rounded=0;orthogonalLoop=1;jettySize=auto;html=1;" edge="1" parent="1" source="UwokpcZbceQ7SHiW36po-7">
          <mxGeometry relative="1" as="geometry">
            <mxPoint x="770" y="660" as="targetPoint" />
          </mxGeometry>
        </mxCell>
        <mxCell id="UwokpcZbceQ7SHiW36po-14" value="N" style="edgeLabel;html=1;align=center;verticalAlign=middle;resizable=0;points=[];" connectable="0" vertex="1" parent="UwokpcZbceQ7SHiW36po-12">
          <mxGeometry x="-0.4655" y="-1" relative="1" as="geometry">
            <mxPoint as="offset" />
          </mxGeometry>
        </mxCell>
        <mxCell id="UwokpcZbceQ7SHiW36po-7" value="if 1&amp;lt;=week number&amp;lt;=7" style="rhombus;whiteSpace=wrap;html=1;" vertex="1" parent="1">
          <mxGeometry x="305" y="480" width="260" height="90" as="geometry" />
        </mxCell>
        <mxCell id="UwokpcZbceQ7SHiW36po-16" style="edgeStyle=orthogonalEdgeStyle;rounded=0;orthogonalLoop=1;jettySize=auto;html=1;" edge="1" parent="1" source="UwokpcZbceQ7SHiW36po-10">
          <mxGeometry relative="1" as="geometry">
            <mxPoint x="400" y="910" as="targetPoint" />
            <Array as="points">
              <mxPoint x="175" y="910" />
              <mxPoint x="341" y="910" />
            </Array>
          </mxGeometry>
        </mxCell>
        <mxCell id="UwokpcZbceQ7SHiW36po-10" value="print(week days[week number])" style="shape=parallelogram;perimeter=parallelogramPerimeter;whiteSpace=wrap;html=1;fixedSize=1;" vertex="1" parent="1">
          <mxGeometry x="10" y="660" width="330" height="60" as="geometry" />
        </mxCell>
        <mxCell id="UwokpcZbceQ7SHiW36po-17" style="edgeStyle=orthogonalEdgeStyle;rounded=0;orthogonalLoop=1;jettySize=auto;html=1;" edge="1" parent="1" source="UwokpcZbceQ7SHiW36po-13">
          <mxGeometry relative="1" as="geometry">
            <mxPoint x="530" y="910" as="targetPoint" />
            <Array as="points">
              <mxPoint x="735" y="860" />
              <mxPoint x="736" y="860" />
            </Array>
          </mxGeometry>
        </mxCell>
        <mxCell id="UwokpcZbceQ7SHiW36po-13" value="print(&quot;invalid week number&quot;)" style="shape=parallelogram;perimeter=parallelogramPerimeter;whiteSpace=wrap;html=1;fixedSize=1;" vertex="1" parent="1">
          <mxGeometry x="580" y="660" width="310" height="60" as="geometry" />
        </mxCell>
        <mxCell id="UwokpcZbceQ7SHiW36po-19" style="edgeStyle=orthogonalEdgeStyle;rounded=0;orthogonalLoop=1;jettySize=auto;html=1;" edge="1" parent="1" source="UwokpcZbceQ7SHiW36po-15">
          <mxGeometry relative="1" as="geometry">
            <mxPoint x="465" y="1040" as="targetPoint" />
          </mxGeometry>
        </mxCell>
        <mxCell id="UwokpcZbceQ7SHiW36po-15" value="" style="ellipse;whiteSpace=wrap;html=1;aspect=fixed;" vertex="1" parent="1">
          <mxGeometry x="410" y="820" width="110" height="110" as="geometry" />
        </mxCell>
        <mxCell id="UwokpcZbceQ7SHiW36po-18" value="&lt;font size=&quot;3&quot;&gt;STOP&lt;/font&gt;" style="ellipse;whiteSpace=wrap;html=1;" vertex="1" parent="1">
          <mxGeometry x="405" y="1050" width="120" height="80" as="geometry" />
        </mxCell>
      </root>
    </mxGraphModel>
  </diagram>
</mxfile>
